<?xml version="1.0" ?><svg data-name="Layer 1" id="Layer_1" viewBox="0 0 272 272" xmlns="http://www.w3.org/2000/svg"><defs><style>.cls-1{fill:#9c28b1;}.cls-2{fill:#ffeb3c;}</style></defs><title/><path class="cls-1" d="M264,124a59.93,59.93,0,0,0-68.1-59.44,60,60,0,0,0-119.79,0A60,60,0,0,0,38.74,176.38,60,60,0,0,0,136,244.78a60,60,0,0,0,97.26-68.4A60,60,0,0,0,264,124Zm-119.9,3.44a59.63,59.63,0,0,0,6.64,24.18A60.23,60.23,0,0,0,136,163.22a60.23,60.23,0,0,0-14.74-11.6,59.63,59.63,0,0,0,6.64-24.18,58.92,58.92,0,0,0,16.21,0Z"/><circle class="cls-2" cx="136" cy="144" r="42"/></svg>